<svg width="128" height="128" viewBox="0 0 128 128" fill="none" xmlns="http://www.w3.org/2000/svg">
<g clip-path="url(#clip0_3_124)">
<path d="M128 3H0V31.3918H92.0372L70.5375 58.9844C76.5976 57.6361 82.862 56.8359 88.8107 55.8697C92.6194 55.1197 104.536 53.396 113.397 49.8428L127.527 30.8637L128 3Z" fill="white"/>
<path d="M61.5969 82.8061C58.3324 83.6073 53.6235 84.8617 48.8756 86.785L19.401 124.612H57.7308L93.678 76.3289C89.3113 77.5444 84.9199 78.4802 80.5087 79.2729C74.396 80.2817 67.6181 81.2957 61.5974 82.8066L61.5969 82.8061Z" fill="white"/>
<path d="M65.1302 65.9239L70.5374 58.9844C68.599 59.4158 66.6804 59.9022 64.8007 60.4692C56.2417 63.0752 47.4235 66.5378 40.4001 73.8618C37.2536 77.2486 34.2229 82.3619 34.7662 87.5099C34.8444 87.3625 34.9193 87.2126 35.0008 87.0676C36.7336 73.7835 56.0431 68.1734 65.1302 65.9239Z" fill="white"/>
<path d="M121.666 46.8178C123.231 44.9296 124.808 41.8414 123.675 39.3289C124.352 43.9388 119.63 47.3436 113.397 49.8429L109.423 55.18C113.838 53.2657 118.159 50.8142 121.666 46.8178Z" fill="white"/>
<path d="M70.5375 58.9843L65.1302 65.9238C65.2421 65.8963 65.3535 65.8684 65.462 65.8418C71.4828 64.3314 78.2606 63.3169 84.3733 62.3081C90.825 61.149 97.2354 59.6988 103.586 57.4863C105.509 56.7652 107.475 56.0242 109.422 55.1799L113.396 49.8428C104.535 53.396 92.6189 55.1197 88.8102 55.8697C82.8615 56.8363 76.5971 57.6361 70.537 58.9843H70.5375Z" fill="white"/>
<path d="M57.2505 76.0364L62.7398 68.9912C54.2212 71.5929 45.4556 75.0565 38.4668 82.344C37.2223 83.6832 35.9959 85.2927 35.0004 87.0672C34.9439 87.4991 34.906 87.9395 34.888 88.3875C34.8335 88.095 34.7965 87.802 34.7657 87.5095C33.3828 90.1155 32.5224 93.0462 32.8329 95.9916C32.9111 95.8442 32.986 95.6949 33.0676 95.5493C34.4784 84.7343 47.5396 79.0055 57.2501 76.0359L57.2505 76.0364Z" fill="white"/>
<path d="M101.653 65.9683C107.937 63.6126 114.679 61.0583 119.734 55.2992C121.299 53.411 122.875 50.3229 121.742 47.8103C122.622 53.7945 114.405 57.7483 105.591 60.3263L101.304 66.0844C101.42 66.0446 101.537 66.0086 101.653 65.9683Z" fill="white"/>
<path d="M62.8679 68.9513C62.8252 68.9641 62.7826 68.9778 62.7399 68.9911L57.2506 76.0363C59.6139 75.3133 61.7794 74.7535 63.5292 74.3244C69.55 72.814 76.3278 71.7995 82.4405 70.7907C88.7742 69.6529 95.0675 68.2297 101.304 66.085L105.591 60.3269C97.9627 62.5584 89.8878 63.7592 86.8774 64.3518C79.0258 65.6275 70.6238 66.6108 62.8674 68.9513H62.8679Z" fill="white"/>
<path d="M35.0009 87.0676C34.9194 87.2132 34.8445 87.3625 34.7662 87.5099C34.7971 87.8024 34.834 88.0954 34.8885 88.3879C34.9066 87.9395 34.9445 87.4995 35.0009 87.0676Z" fill="white"/>
<path d="M99.7206 74.4505C106.004 72.0948 112.746 69.5405 117.801 63.7819C119.366 61.8937 120.942 58.8056 119.809 56.293C120.87 63.5084 108.706 67.7722 98.2173 70.2312L93.6776 76.3288C95.6971 75.7665 97.7124 75.1502 99.7206 74.4505Z" fill="white"/>
<path d="M36.5345 90.8264C35.29 92.1657 34.0636 93.7752 33.068 95.5496C33.0116 95.9815 32.9737 96.4219 32.9557 96.8699C32.9012 96.5774 32.8642 96.2844 32.8334 95.9919C31.313 98.8568 30.418 102.115 31.0229 105.352C31.4012 96.0436 40.2038 90.2973 48.8751 86.7849L54.4673 79.6084C48.0583 82.0238 41.7934 85.3428 36.5345 90.8264Z" fill="white"/>
<path d="M60.9351 77.4333C58.7847 78.088 56.6177 78.7972 54.4673 79.6079L48.8751 86.7844C53.623 84.8611 58.332 83.6067 61.5964 82.8055C67.6172 81.2951 74.395 80.2806 80.5077 79.2718C84.919 78.4791 89.3103 77.5433 93.677 76.3278L98.2168 70.2302C92.4776 71.5756 87.2391 72.3811 84.9446 72.8329C77.093 74.1086 68.6909 75.0919 60.9346 77.4324L60.9351 77.4333Z" fill="white"/>
<path d="M33.0681 95.5498C32.9866 95.6953 32.9117 95.8447 32.8334 95.9921C32.8642 96.2846 32.9012 96.5776 32.9558 96.8701C32.9738 96.4216 33.0117 95.9817 33.0681 95.5498Z" fill="white"/>
</g>
<defs>
<clipPath id="clip0_3_124">
<rect width="128" height="128" fill="white"/>
</clipPath>
</defs>
</svg>
