<svg width="129" height="157" viewBox="0 0 129 157" fill="none" xmlns="http://www.w3.org/2000/svg">
<g clip-path="url(#clip0_3_504)">
<path d="M111 2.17969H18V22.8081H84.8708L69.2499 42.8558C73.6529 41.8762 78.2044 41.2948 82.5265 40.5928C85.2938 40.0479 93.9517 38.7955 100.39 36.2139L110.656 22.4244L111 2.17969Z" fill="url(#paint0_linear_3_504)"/>
<path d="M62.754 60.1638C60.3822 60.7459 56.9608 61.6573 53.5112 63.0547L32.096 90.5386H59.9451L86.0629 55.4576C82.8902 56.3408 79.6996 57.0207 76.4946 57.5966C72.0533 58.3296 67.1288 59.0664 62.7544 60.1641L62.754 60.1638Z" fill="url(#paint1_linear_3_504)"/>
<path d="M65.3211 47.8978L69.2499 42.8558C67.8414 43.1693 66.4475 43.5227 65.0818 43.9346C58.8632 45.828 52.4561 48.3439 47.3532 53.6652C45.0671 56.1259 42.8651 59.8411 43.2598 63.5814C43.3167 63.4743 43.3711 63.3654 43.4303 63.26C44.6893 53.6084 58.7188 49.5322 65.3211 47.8978Z" fill="url(#paint2_linear_3_504)"/>
<path d="M106.398 34.016C107.535 32.6441 108.681 30.4004 107.858 28.5748C108.35 31.9242 104.918 34.398 100.39 36.2139L97.5026 40.0917C100.711 38.7008 103.85 36.9197 106.398 34.016Z" fill="url(#paint3_linear_3_504)"/>
<path d="M69.2499 42.8558L65.3212 47.8978C65.4025 47.8778 65.4834 47.8575 65.5623 47.8382C69.9367 46.7408 74.8612 46.0037 79.3025 45.2707C83.9901 44.4285 88.6476 43.3749 93.2615 41.7673C94.6589 41.2434 96.0873 40.7051 97.5023 40.0916L100.389 36.2139C93.951 38.7955 85.2934 40.0479 82.5262 40.5928C78.2041 41.2951 73.6526 41.8762 69.2496 42.8558H69.2499Z" fill="url(#paint4_linear_3_504)"/>
<path d="M59.5961 55.2451L63.5844 50.1263C57.3951 52.0167 51.0264 54.5332 45.9486 59.828C45.0444 60.801 44.1533 61.9704 43.43 63.2597C43.389 63.5735 43.3614 63.8934 43.3483 64.2189C43.3087 64.0064 43.2819 63.7936 43.2595 63.581C42.2547 65.4744 41.6296 67.6038 41.8552 69.7438C41.912 69.6367 41.9664 69.5282 42.0257 69.4225C43.0507 61.5647 52.5405 57.4024 59.5958 55.2448L59.5961 55.2451Z" fill="url(#paint5_linear_3_504)"/>
<path d="M91.8575 47.9302C96.4228 46.2187 101.321 44.3628 104.994 40.1785C106.131 38.8066 107.276 36.5629 106.453 34.7373C107.092 39.0852 101.122 41.9579 94.7184 43.831L91.6036 48.0146C91.688 47.9857 91.7731 47.9595 91.8575 47.9302Z" fill="url(#paint6_linear_3_504)"/>
<path d="M63.6775 50.0974C63.6465 50.1067 63.6155 50.1167 63.5845 50.1264L59.5961 55.2452C61.3132 54.7199 62.8866 54.3131 64.158 54.0014C68.5324 52.904 73.4569 52.1669 77.8982 51.4339C82.5 50.6072 87.0725 49.5732 91.6036 48.0149L94.7184 43.8313C89.176 45.4526 83.3091 46.3251 81.1218 46.7556C75.4171 47.6825 69.3126 48.3969 63.6771 50.0974H63.6775Z" fill="url(#paint7_linear_3_504)"/>
<path d="M43.4303 63.26C43.3711 63.3658 43.3167 63.4743 43.2598 63.5814C43.2822 63.7939 43.3091 64.0068 43.3487 64.2193C43.3618 63.8934 43.3893 63.5738 43.4303 63.26Z" fill="url(#paint8_linear_3_504)"/>
<path d="M90.4532 54.093C95.0185 52.3814 99.9172 50.5256 103.59 46.3416C104.727 44.9697 105.872 42.7259 105.049 40.9004C105.82 46.1428 96.9815 49.2408 89.361 51.0274L86.0626 55.4577C87.5299 55.0491 88.9942 54.6014 90.4532 54.093Z" fill="url(#paint9_linear_3_504)"/>
<path d="M44.5446 65.991C43.6404 66.9641 42.7494 68.1335 42.026 69.4227C41.985 69.7365 41.9575 70.0565 41.9444 70.382C41.9048 70.1695 41.8779 69.9566 41.8555 69.7441C40.7509 71.8256 40.1006 74.1929 40.5401 76.5448C40.815 69.7816 47.2106 65.6066 53.5108 63.0547L57.5739 57.8405C52.9174 59.5954 48.3655 62.0069 44.5446 65.991Z" fill="url(#paint10_linear_3_504)"/>
<path d="M62.2732 56.2602C60.7108 56.7359 59.1363 57.2512 57.5739 57.8402L53.5108 63.0544C56.9604 61.657 60.3818 60.7456 62.7537 60.1635C67.1281 59.0661 72.0526 58.329 76.4939 57.596C79.6989 57.0201 82.8895 56.3401 86.0622 55.457L89.3606 51.0267C85.1908 52.0043 81.3847 52.5895 79.7175 52.9177C74.0129 53.8446 67.9083 54.559 62.2728 56.2595L62.2732 56.2602Z" fill="url(#paint11_linear_3_504)"/>
<path d="M42.0261 69.4229C41.9668 69.5286 41.9124 69.6371 41.8556 69.7442C41.8779 69.9567 41.9048 70.1696 41.9444 70.3821C41.9575 70.0563 41.9851 69.7366 42.0261 69.4229Z" fill="url(#paint12_linear_3_504)"/>
</g>
<g clip-path="url(#clip1_3_504)">
<path d="M123.339 141.987C124.988 141.987 126.225 142.418 127.05 143.281C127.893 144.125 128.315 145.295 128.315 146.791V156.37C128.315 156.561 128.219 156.657 128.028 156.657H127.481C127.289 156.657 127.193 156.561 127.193 156.37V154.931C127.193 154.893 127.174 154.874 127.136 154.874C127.117 154.855 127.088 154.864 127.05 154.903C126.57 155.555 125.908 156.053 125.065 156.398C124.24 156.724 123.339 156.887 122.361 156.887C121.037 156.887 119.916 156.571 118.995 155.938C118.094 155.286 117.643 154.27 117.643 152.889C117.643 151.47 118.161 150.367 119.196 149.581C120.251 148.775 121.699 148.373 123.54 148.373H127.078C127.155 148.373 127.193 148.334 127.193 148.258V146.762C127.193 145.611 126.877 144.7 126.244 144.029C125.611 143.339 124.624 142.994 123.281 142.994C122.246 142.994 121.392 143.214 120.721 143.655C120.05 144.077 119.638 144.652 119.484 145.381C119.427 145.573 119.311 145.659 119.139 145.64L118.535 145.554C118.458 145.534 118.391 145.506 118.333 145.467C118.276 145.41 118.257 145.352 118.276 145.295C118.468 144.298 119.014 143.502 119.916 142.907C120.836 142.294 121.977 141.987 123.339 141.987ZM122.476 155.881C123.741 155.881 124.844 155.574 125.784 154.96C126.724 154.346 127.193 153.483 127.193 152.371V149.437C127.193 149.36 127.155 149.322 127.078 149.322H123.598C122.159 149.322 120.99 149.638 120.088 150.271C119.206 150.885 118.765 151.738 118.765 152.831C118.765 153.829 119.11 154.586 119.801 155.104C120.491 155.622 121.383 155.881 122.476 155.881Z" fill="#222222"/>
<path d="M114.15 142.907C114.15 143.099 114.054 143.195 113.862 143.195H110.381C110.305 143.195 110.266 143.233 110.266 143.31V152.86C110.266 153.896 110.506 154.624 110.985 155.046C111.465 155.449 112.213 155.65 113.229 155.65H113.862C114.054 155.65 114.15 155.746 114.15 155.938V156.37C114.15 156.561 114.054 156.657 113.862 156.657H113.143C111.858 156.657 110.87 156.398 110.18 155.881C109.509 155.363 109.173 154.423 109.173 153.062V143.31C109.173 143.233 109.135 143.195 109.058 143.195H107.303C107.112 143.195 107.016 143.099 107.016 142.907V142.504C107.016 142.313 107.112 142.217 107.303 142.217H109.058C109.135 142.217 109.173 142.178 109.173 142.102V138.851C109.173 138.659 109.269 138.563 109.461 138.563H109.979C110.17 138.563 110.266 138.659 110.266 138.851V142.102C110.266 142.178 110.305 142.217 110.381 142.217H113.862C114.054 142.217 114.15 142.313 114.15 142.504V142.907Z" fill="#222222"/>
<path d="M99.1443 156.772C98.1471 156.772 97.2553 156.609 96.4691 156.283C95.702 155.957 95.1075 155.516 94.6856 154.96C94.2637 154.385 94.0527 153.762 94.0527 153.09V152.688C94.0527 152.496 94.1486 152.4 94.3404 152.4H94.8582C95.05 152.4 95.1458 152.496 95.1458 152.688V153.062C95.1458 153.541 95.3088 153.992 95.6349 154.414C95.9801 154.836 96.4499 155.181 97.0444 155.449C97.6581 155.699 98.3484 155.823 99.1155 155.823C100.266 155.823 101.196 155.555 101.906 155.018C102.635 154.462 102.999 153.752 102.999 152.889C102.999 152.295 102.817 151.815 102.452 151.451C102.088 151.086 101.666 150.818 101.187 150.645C100.726 150.454 99.9689 150.185 98.9142 149.84C97.8594 149.514 97.006 149.207 96.354 148.919C95.7212 148.632 95.1842 148.239 94.7431 147.74C94.3212 147.241 94.1103 146.608 94.1103 145.841C94.1103 144.71 94.5609 143.809 95.4623 143.137C96.3828 142.447 97.5814 142.102 99.058 142.102C100.535 142.102 101.733 142.457 102.654 143.166C103.574 143.857 104.035 144.739 104.035 145.813V145.899C104.035 146.091 103.939 146.187 103.747 146.187H103.229C103.037 146.187 102.941 146.091 102.941 145.899V145.813C102.941 145.026 102.577 144.374 101.848 143.857C101.139 143.32 100.199 143.051 99.0292 143.051C97.8786 143.051 96.9581 143.31 96.2677 143.828C95.5773 144.326 95.2321 144.978 95.2321 145.784C95.2321 146.34 95.3952 146.8 95.7212 147.165C96.0472 147.51 96.4691 147.797 96.9869 148.028C97.5047 148.239 98.2142 148.488 99.1155 148.775C100.247 149.121 101.129 149.428 101.762 149.696C102.414 149.945 102.97 150.329 103.43 150.847C103.891 151.345 104.121 152.007 104.121 152.831C104.121 154.001 103.661 154.951 102.74 155.679C101.839 156.408 100.64 156.772 99.1443 156.772Z" fill="#222222"/>
<path d="M88.505 139.11C88.1214 139.11 87.805 138.985 87.5557 138.736C87.3064 138.487 87.1817 138.18 87.1817 137.816C87.1817 137.432 87.3064 137.116 87.5557 136.866C87.805 136.617 88.1214 136.492 88.505 136.492C88.8885 136.492 89.2049 136.617 89.4542 136.866C89.7035 137.116 89.8282 137.432 89.8282 137.816C89.8282 138.18 89.7035 138.487 89.4542 138.736C89.2049 138.985 88.8885 139.11 88.505 139.11ZM88.1598 156.629C87.968 156.629 87.8721 156.533 87.8721 156.341V142.476C87.8721 142.284 87.968 142.188 88.1598 142.188H88.7063C88.8981 142.188 88.994 142.284 88.994 142.476V156.341C88.994 156.533 88.8981 156.629 88.7063 156.629H88.1598Z" fill="#222222"/>
<path d="M82.9115 142.907C82.9115 143.099 82.8157 143.195 82.6239 143.195H79.1432C79.0665 143.195 79.0281 143.233 79.0281 143.31V152.86C79.0281 153.896 79.2679 154.624 79.7473 155.046C80.2267 155.449 80.9746 155.65 81.991 155.65H82.6239C82.8157 155.65 82.9115 155.746 82.9115 155.938V156.37C82.9115 156.561 82.8157 156.657 82.6239 156.657H81.9047C80.6199 156.657 79.6322 156.398 78.9418 155.881C78.2706 155.363 77.935 154.423 77.935 153.062V143.31C77.935 143.233 77.8967 143.195 77.82 143.195H76.0652C75.8735 143.195 75.7776 143.099 75.7776 142.907V142.504C75.7776 142.313 75.8735 142.217 76.0652 142.217H77.82C77.8967 142.217 77.935 142.178 77.935 142.102V138.851C77.935 138.659 78.0309 138.563 78.2227 138.563H78.7405C78.9323 138.563 79.0281 138.659 79.0281 138.851V142.102C79.0281 142.178 79.0665 142.217 79.1432 142.217H82.6239C82.8157 142.217 82.9115 142.313 82.9115 142.504V142.907Z" fill="#222222"/>
<path d="M67.2591 142.016C68.6974 142.016 69.8672 142.466 70.7685 143.368C71.6699 144.25 72.1205 145.419 72.1205 146.877V156.37C72.1205 156.561 72.0246 156.657 71.8329 156.657H71.2863C71.0945 156.657 70.9986 156.561 70.9986 156.37V147.078C70.9986 145.889 70.6343 144.921 69.9055 144.173C69.1768 143.406 68.2275 143.022 67.0577 143.022C65.8112 143.022 64.8044 143.396 64.0373 144.144C63.2894 144.873 62.9154 145.832 62.9154 147.021V156.37C62.9154 156.561 62.8195 156.657 62.6278 156.657H62.0812C61.8894 156.657 61.7935 156.561 61.7935 156.37V142.505C61.7935 142.313 61.8894 142.217 62.0812 142.217H62.6278C62.8195 142.217 62.9154 142.313 62.9154 142.505V144.058C62.9154 144.115 62.925 144.154 62.9442 144.173C62.9825 144.173 63.0113 144.154 63.0305 144.115C63.4524 143.444 64.0181 142.926 64.7277 142.562C65.4564 142.198 66.3002 142.016 67.2591 142.016Z" fill="#222222"/>
<path d="M51.6587 155.881C52.6367 155.881 53.4805 155.66 54.1901 155.219C54.8997 154.759 55.4174 154.136 55.7435 153.349C55.8202 153.196 55.9448 153.148 56.1174 153.205L56.5777 153.378C56.7503 153.436 56.7982 153.551 56.7215 153.723C56.338 154.682 55.6955 155.449 54.7942 156.024C53.8929 156.6 52.8285 156.887 51.6012 156.887C50.2971 156.887 49.1848 156.552 48.2643 155.881C47.363 155.209 46.7493 154.308 46.4233 153.177C46.2891 152.736 46.2028 152.237 46.1644 151.681C46.1261 151.106 46.1069 150.348 46.1069 149.408C46.1069 148.526 46.1165 147.826 46.1356 147.308C46.174 146.771 46.2411 146.292 46.337 145.87C46.6247 144.7 47.2287 143.761 48.1493 143.051C49.0889 142.341 50.23 141.987 51.5724 141.987C53.0299 141.987 54.2189 142.37 55.1394 143.137C56.0791 143.904 56.664 144.93 56.8941 146.215C56.9708 146.56 57.0188 146.982 57.0379 147.481C57.0571 147.98 57.0667 148.632 57.0667 149.437C57.0667 149.648 56.9708 149.754 56.779 149.754H47.3438C47.2671 149.754 47.2287 149.792 47.2287 149.869C47.2287 150.463 47.2383 151.01 47.2575 151.508C47.2767 152.007 47.315 152.371 47.3726 152.601C47.5643 153.599 48.0342 154.394 48.7821 154.989C49.5492 155.583 50.5081 155.881 51.6587 155.881ZM51.5724 142.994C50.4601 142.994 49.53 143.291 48.7821 143.885C48.0342 144.48 47.5643 145.256 47.3726 146.215C47.2767 146.791 47.2287 147.606 47.2287 148.66C47.2287 148.737 47.2671 148.775 47.3438 148.775H55.8298C55.9065 148.775 55.9448 148.737 55.9448 148.66C55.9448 147.586 55.8969 146.791 55.801 146.273C55.59 145.295 55.1106 144.509 54.3627 143.914C53.6148 143.3 52.6847 142.994 51.5724 142.994Z" fill="#222222"/>
<path d="M37.3531 156.657C37.1805 156.657 37.0654 156.581 37.0079 156.427L32.204 142.533L32.1752 142.418C32.1752 142.284 32.2615 142.217 32.4341 142.217H33.0957C33.2683 142.217 33.3834 142.294 33.4409 142.447L37.5832 154.845C37.6024 154.883 37.6311 154.903 37.6695 154.903C37.7079 154.903 37.7366 154.883 37.7558 154.845L41.9269 142.447C41.9844 142.294 42.0995 142.217 42.272 142.217H42.9049C43.1158 142.217 43.1926 142.322 43.135 142.533L38.3599 156.427C38.3023 156.581 38.1873 156.657 38.0147 156.657H37.3531Z" fill="#222222"/>
<path d="M27.3393 136.809C27.3393 136.617 27.4352 136.521 27.627 136.521H28.1735C28.3653 136.521 28.4612 136.617 28.4612 136.809V156.37C28.4612 156.562 28.3653 156.657 28.1735 156.657H27.627C27.4352 156.657 27.3393 156.562 27.3393 156.37V154.788C27.3393 154.73 27.3202 154.701 27.2818 154.701C27.2626 154.701 27.2339 154.72 27.1955 154.759C26.7736 155.43 26.2079 155.957 25.4983 156.341C24.8079 156.705 24.0312 156.888 23.1683 156.888C21.8642 156.888 20.7615 156.542 19.8602 155.852C18.978 155.162 18.3931 154.241 18.1055 153.09C17.9904 152.649 17.9137 152.16 17.8753 151.623C17.8562 151.086 17.8466 150.367 17.8466 149.466C17.8466 148.584 17.8562 147.865 17.8753 147.308C17.9137 146.752 17.9904 146.254 18.1055 145.813C18.3739 144.662 18.9493 143.741 19.8314 143.051C20.7328 142.342 21.845 141.987 23.1683 141.987C24.0504 141.987 24.8367 142.179 25.5271 142.562C26.2175 142.926 26.7736 143.435 27.1955 144.087C27.2339 144.125 27.2626 144.144 27.2818 144.144C27.3202 144.144 27.3393 144.115 27.3393 144.058V136.809ZM27.0804 152.803C27.1763 152.458 27.2434 152.084 27.2818 151.681C27.3202 151.259 27.3393 150.521 27.3393 149.466C27.3393 148.392 27.3202 147.654 27.2818 147.251C27.2434 146.829 27.1763 146.426 27.0804 146.043C26.9078 145.161 26.4859 144.432 25.8147 143.857C25.1435 143.281 24.2997 142.994 23.2833 142.994C22.2669 142.994 21.3944 143.281 20.6656 143.857C19.9561 144.413 19.4958 145.132 19.2849 146.014C19.1698 146.359 19.0931 146.743 19.0547 147.165C19.0164 147.587 18.9972 148.334 18.9972 149.408C18.9972 150.501 19.0068 151.259 19.026 151.681C19.0643 152.084 19.1315 152.458 19.2273 152.803C19.3999 153.704 19.8602 154.442 20.6081 155.018C21.356 155.593 22.2478 155.881 23.2833 155.881C24.2997 155.881 25.1339 155.593 25.786 155.018C26.4572 154.423 26.8887 153.685 27.0804 152.803Z" fill="#222222"/>
<path d="M14.0385 156.657C13.8659 156.657 13.7508 156.581 13.6933 156.427L12.3988 152.458C12.3796 152.4 12.3413 152.371 12.2838 152.371H3.02113C2.9636 152.371 2.92524 152.4 2.90607 152.458L1.64036 156.427C1.58283 156.581 1.46777 156.657 1.29517 156.657H0.74862C0.53767 156.657 0.46096 156.552 0.518492 156.341L6.9333 136.751C6.99083 136.598 7.10589 136.521 7.27849 136.521H8.0264C8.199 136.521 8.31406 136.598 8.37159 136.751L14.8439 156.341L14.8727 156.456C14.8727 156.59 14.7864 156.657 14.6138 156.657H14.0385ZM3.28002 151.278C3.26085 151.317 3.26085 151.355 3.28002 151.393C3.31838 151.412 3.35673 151.422 3.39509 151.422H11.9386C11.9769 151.422 12.0057 151.412 12.0249 151.393C12.0632 151.355 12.0728 151.317 12.0536 151.278L7.73874 138.132C7.71957 138.094 7.6908 138.075 7.65245 138.075C7.61409 138.075 7.58533 138.094 7.56615 138.132L3.28002 151.278Z" fill="#222222"/>
<path d="M119.104 109.554C121.005 109.554 122.657 109.897 124.059 110.583C125.493 111.237 126.583 112.172 127.331 113.387C128.11 114.572 128.5 115.927 128.5 117.454V133.254C128.5 133.565 128.344 133.721 128.033 133.721H124.48C124.168 133.721 124.013 133.565 124.013 133.254V131.571C124.013 131.415 123.935 131.384 123.779 131.478C122.969 132.319 121.971 132.973 120.787 133.441C119.634 133.877 118.341 134.095 116.907 134.095C114.601 134.095 112.685 133.519 111.158 132.366C109.662 131.182 108.914 129.405 108.914 127.037C108.914 124.606 109.755 122.705 111.438 121.334C113.152 119.932 115.536 119.23 118.59 119.23H123.826C123.95 119.23 124.013 119.168 124.013 119.043V117.781C124.013 116.41 123.607 115.351 122.797 114.603C122.018 113.824 120.818 113.434 119.198 113.434C117.889 113.434 116.814 113.699 115.972 114.229C115.162 114.727 114.664 115.413 114.477 116.286C114.383 116.597 114.196 116.737 113.916 116.706L110.129 116.192C109.818 116.13 109.677 116.005 109.709 115.818C109.958 113.979 110.94 112.484 112.654 111.331C114.368 110.146 116.518 109.554 119.104 109.554ZM117.889 130.309C119.541 130.309 120.974 129.873 122.189 129C123.405 128.128 124.013 127.021 124.013 125.681V122.923C124.013 122.799 123.95 122.736 123.826 122.736H119.432C117.593 122.736 116.128 123.095 115.038 123.811C113.947 124.528 113.401 125.525 113.401 126.803C113.401 127.956 113.807 128.829 114.617 129.421C115.458 130.013 116.549 130.309 117.889 130.309Z" fill="#222222"/>
<path d="M99.8758 133.721C99.5642 133.721 99.4084 133.565 99.4084 133.254V101.467C99.4084 101.156 99.5642 101 99.8758 101H103.428C103.74 101 103.896 101.156 103.896 101.467V133.254C103.896 133.565 103.74 133.721 103.428 133.721H99.8758Z" fill="#222222"/>
<path d="M83.9546 109.554C85.8555 109.554 87.5072 109.897 88.9095 110.583C90.343 111.237 91.4337 112.172 92.1816 113.387C92.9607 114.572 93.3502 115.927 93.3502 117.454V133.254C93.3502 133.565 93.1944 133.721 92.8828 133.721H89.3302C89.0186 133.721 88.8627 133.565 88.8627 133.254V131.571C88.8627 131.415 88.7848 131.384 88.629 131.478C87.8188 132.319 86.8216 132.973 85.6374 133.441C84.4843 133.877 83.1911 134.095 81.7576 134.095C79.4515 134.095 77.535 133.519 76.008 132.366C74.5121 131.182 73.7642 129.405 73.7642 127.037C73.7642 124.606 74.6056 122.705 76.2884 121.334C78.0024 119.932 80.3864 119.23 83.4404 119.23H88.6758C88.8004 119.23 88.8627 119.168 88.8627 119.043V117.781C88.8627 116.41 88.4576 115.351 87.6474 114.603C86.8683 113.824 85.6685 113.434 84.048 113.434C82.7392 113.434 81.6641 113.699 80.8227 114.229C80.0124 114.727 79.5138 115.413 79.3268 116.286C79.2333 116.597 79.0464 116.737 78.7659 116.706L74.9796 116.192C74.668 116.13 74.5277 116.005 74.5589 115.818C74.8082 113.979 75.7898 112.484 77.5038 111.331C79.2178 110.146 81.368 109.554 83.9546 109.554ZM82.7392 130.309C84.3908 130.309 85.8243 129.873 87.0397 129C88.2551 128.128 88.8627 127.021 88.8627 125.681V122.923C88.8627 122.799 88.8004 122.736 88.6758 122.736H84.2818C82.4431 122.736 80.9785 123.095 79.8878 123.811C78.7971 124.528 78.2517 125.525 78.2517 126.803C78.2517 127.956 78.6568 128.829 79.4671 129.421C80.3085 130.013 81.3992 130.309 82.7392 130.309Z" fill="#222222"/>
<path d="M60.1911 134.095C57.8227 134.095 55.7971 133.503 54.1143 132.319C52.4315 131.104 51.2785 129.468 50.6552 127.411C50.1878 125.977 49.954 124.092 49.954 121.755C49.954 119.604 50.1878 117.719 50.6552 116.099C51.2785 114.104 52.4315 112.515 54.1143 111.331C55.8283 110.146 57.8539 109.554 60.1911 109.554C62.5284 109.554 64.5695 110.146 66.3147 111.331C68.0598 112.515 69.1973 114.011 69.727 115.818C69.914 116.317 70.0387 116.831 70.101 117.361C70.101 117.61 69.9608 117.766 69.6803 117.828L66.1744 118.342H66.0809C65.8628 118.342 65.707 118.202 65.6135 117.922L65.4733 117.174C65.224 116.114 64.6163 115.226 63.6502 114.509C62.6842 113.792 61.5156 113.434 60.1444 113.434C58.8044 113.434 57.6669 113.792 56.732 114.509C55.7971 115.226 55.1894 116.176 54.909 117.361C54.6285 118.483 54.4883 119.963 54.4883 121.801C54.4883 123.609 54.6285 125.074 54.909 126.195C55.2206 127.442 55.8283 128.424 56.732 129.14C57.6669 129.857 58.8044 130.215 60.1444 130.215C61.5156 130.215 62.6842 129.857 63.6502 129.14C64.6474 128.424 65.2707 127.489 65.52 126.336C65.5512 126.304 65.5512 126.273 65.52 126.242C65.52 126.18 65.5356 126.133 65.5668 126.102V125.915C65.6602 125.666 65.8316 125.572 66.0809 125.634L69.5868 126.195C69.8361 126.258 69.9608 126.382 69.9608 126.569V126.756C69.9608 127.037 69.8828 127.38 69.727 127.785C69.1973 129.686 68.0598 131.213 66.3147 132.366C64.5695 133.519 62.5284 134.095 60.1911 134.095Z" fill="#222222"/>
<path d="M36.2436 134.002C34.3738 134.002 32.7222 133.721 31.2887 133.16C29.8863 132.599 28.7956 131.836 28.0165 130.87C27.2375 129.873 26.8479 128.782 26.8479 127.598V127.083C26.8479 126.772 27.0037 126.616 27.3154 126.616H30.681C30.9926 126.616 31.1484 126.772 31.1484 127.083V127.317C31.1484 128.19 31.6159 128.953 32.5508 129.608C33.5168 130.262 34.7322 130.589 36.1969 130.589C37.5992 130.589 38.7367 130.293 39.6092 129.701C40.4818 129.078 40.9181 128.299 40.9181 127.364C40.9181 126.46 40.513 125.79 39.7027 125.354C38.8925 124.886 37.5836 124.403 35.7762 123.905C33.9999 123.406 32.504 122.908 31.2887 122.409C30.1045 121.879 29.0917 121.147 28.2503 120.212C27.44 119.246 27.0349 118.015 27.0349 116.519C27.0349 114.431 27.8452 112.78 29.4656 111.564C31.1173 110.318 33.2987 109.694 36.0099 109.694C37.8173 109.694 39.4067 109.991 40.7778 110.583C42.1802 111.144 43.2553 111.938 44.0032 112.967C44.7511 113.995 45.1251 115.148 45.1251 116.426V116.566C45.1251 116.878 44.9693 117.033 44.6576 117.033H41.3855C41.0739 117.033 40.9181 116.878 40.9181 116.566V116.426C40.9181 115.522 40.4662 114.774 39.5625 114.182C38.6899 113.559 37.4901 113.247 35.9631 113.247C34.592 113.247 33.4701 113.512 32.5975 114.042C31.7561 114.571 31.3354 115.288 31.3354 116.192C31.3354 117.096 31.7405 117.781 32.5508 118.249C33.3922 118.716 34.7322 119.215 36.5708 119.745C38.3783 120.243 39.8741 120.742 41.0583 121.24C42.2737 121.708 43.3021 122.425 44.1435 123.391C44.9849 124.326 45.4056 125.556 45.4056 127.083C45.4056 129.203 44.5642 130.885 42.8813 132.132C41.2297 133.378 39.0171 134.002 36.2436 134.002Z" fill="#222222"/>
<path d="M22.2363 104.412C22.2363 104.724 22.0805 104.88 21.7688 104.88H5.17447C5.04981 104.88 4.98749 104.942 4.98749 105.067V115.117C4.98749 115.242 5.04981 115.304 5.17447 115.304H16.5802C16.8918 115.304 17.0476 115.46 17.0476 115.771V118.716C17.0476 119.028 16.8918 119.184 16.5802 119.184H5.17447C5.04981 119.184 4.98749 119.246 4.98749 119.371V129.654C4.98749 129.779 5.04981 129.841 5.17447 129.841H21.7688C22.0805 129.841 22.2363 129.997 22.2363 130.309V133.254C22.2363 133.565 22.0805 133.721 21.7688 133.721H0.967447C0.655815 133.721 0.5 133.565 0.5 133.254V101.467C0.5 101.156 0.655815 101 0.967447 101H21.7688C22.0805 101 22.2363 101.156 22.2363 101.467V104.412Z" fill="#222222"/>
</g>
<defs>
<linearGradient id="paint0_linear_3_504" x1="18" y1="2.17969" x2="47.868" y2="70.4684" gradientUnits="userSpaceOnUse">
<stop stop-color="#FF6600"/>
<stop offset="1" stop-color="#EF1443"/>
</linearGradient>
<linearGradient id="paint1_linear_3_504" x1="32.096" y1="55.4576" x2="64.1569" y2="104.779" gradientUnits="userSpaceOnUse">
<stop stop-color="#FF6600"/>
<stop offset="1" stop-color="#EF1443"/>
</linearGradient>
<linearGradient id="paint2_linear_3_504" x1="43.2137" y1="42.8558" x2="63.4114" y2="68.229" gradientUnits="userSpaceOnUse">
<stop stop-color="#FF6600"/>
<stop offset="1" stop-color="#EF1443"/>
</linearGradient>
<linearGradient id="paint3_linear_3_504" x1="97.5026" y1="28.5748" x2="108.983" y2="39.1759" gradientUnits="userSpaceOnUse">
<stop stop-color="#FF6600"/>
<stop offset="1" stop-color="#EF1443"/>
</linearGradient>
<linearGradient id="paint4_linear_3_504" x1="65.3212" y1="36.2139" x2="72.3289" y2="57.2469" gradientUnits="userSpaceOnUse">
<stop stop-color="#FF6600"/>
<stop offset="1" stop-color="#EF1443"/>
</linearGradient>
<linearGradient id="paint5_linear_3_504" x1="41.8091" y1="50.1263" x2="61.3203" y2="71.7836" gradientUnits="userSpaceOnUse">
<stop stop-color="#FF6600"/>
<stop offset="1" stop-color="#EF1443"/>
</linearGradient>
<linearGradient id="paint6_linear_3_504" x1="91.6036" y1="34.7373" x2="104.769" y2="49.7386" gradientUnits="userSpaceOnUse">
<stop stop-color="#FF6600"/>
<stop offset="1" stop-color="#EF1443"/>
</linearGradient>
<linearGradient id="paint7_linear_3_504" x1="59.5961" y1="43.8313" x2="66.3059" y2="64.4785" gradientUnits="userSpaceOnUse">
<stop stop-color="#FF6600"/>
<stop offset="1" stop-color="#EF1443"/>
</linearGradient>
<linearGradient id="paint8_linear_3_504" x1="43.2598" y1="63.26" x2="43.5904" y2="63.3188" gradientUnits="userSpaceOnUse">
<stop stop-color="#FF6600"/>
<stop offset="1" stop-color="#EF1443"/>
</linearGradient>
<linearGradient id="paint9_linear_3_504" x1="86.0626" y1="40.9004" x2="100.066" y2="59.4339" gradientUnits="userSpaceOnUse">
<stop stop-color="#FF6600"/>
<stop offset="1" stop-color="#EF1443"/>
</linearGradient>
<linearGradient id="paint10_linear_3_504" x1="40.4014" y1="57.8405" x2="59.0377" y2="74.9504" gradientUnits="userSpaceOnUse">
<stop stop-color="#FF6600"/>
<stop offset="1" stop-color="#EF1443"/>
</linearGradient>
<linearGradient id="paint11_linear_3_504" x1="53.5108" y1="51.0267" x2="60.7649" y2="72.6483" gradientUnits="userSpaceOnUse">
<stop stop-color="#FF6600"/>
<stop offset="1" stop-color="#EF1443"/>
</linearGradient>
<linearGradient id="paint12_linear_3_504" x1="41.8556" y1="69.4229" x2="42.1861" y2="69.4816" gradientUnits="userSpaceOnUse">
<stop stop-color="#FF6600"/>
<stop offset="1" stop-color="#EF1443"/>
</linearGradient>
<clipPath id="clip0_3_504">
<rect width="93" height="93" fill="white" transform="translate(18)"/>
</clipPath>
<clipPath id="clip1_3_504">
<rect width="128" height="56" fill="white" transform="translate(0.5 101)"/>
</clipPath>
</defs>
</svg>
